# Blender 3.6.2
# www.blender.org
o sand
v -2.000000 0.218115 1.333333 0.5098 0.5216 0.6039
v 2.000000 0.218115 1.333333 0.8196 0.8235 0.8470
v -2.000000 0.000000 -1.333333 0.4000 0.4118 0.5333
v 2.000000 0.000000 -1.333333 0.5804 0.5882 0.6628
v 1.428572 0.000000 -1.217354 1.0000 1.0000 1.0000
v 0.857142 0.000000 -1.333333 1.0000 1.0000 1.0000
v 0.285714 0.000000 -1.262562 0.8666 0.6432 0.5804
v -0.285714 0.000000 -1.333333 0.9568 0.8980 0.7764
v -0.857143 0.000000 -1.549063 0.9686 0.9215 0.8313
v -1.428572 0.000000 -1.333333 0.9411 0.8470 0.7490
v -2.000000 -0.080542 -2.339785 0.5059 0.5137 0.6039
v 2.000000 -0.080542 -2.339785 0.5098 0.5176 0.6039
v 1.428572 -0.080542 -1.717167 1.0000 1.0000 1.0000
v 0.857142 -0.080542 -1.838766 1.0000 1.0000 1.0000
v 0.285714 -0.080542 -1.684641 1.0000 1.0000 1.0000
v -0.285714 -0.080542 -1.890471 1.0000 1.0000 1.0000
v -0.857143 -0.080542 -1.877623 1.0000 1.0000 1.0000
v -1.428572 -0.080542 -1.717167 0.9921 0.9804 0.9607
v -2.000000 -0.340054 -2.838133 0.5294 0.5373 0.6197
v 2.000000 -0.340054 -2.714516 0.2941 0.3098 0.4667
v 1.428572 -0.340054 -2.838133 0.4353 0.4471 0.5530
v 0.857142 -0.340054 -2.515352 0.8196 0.8235 0.8470
v 0.285714 -0.340054 -2.705362 0.4863 0.4980 0.5921
v -0.285714 -0.340054 -2.515352 0.4863 0.4941 0.5882
v -0.857143 -0.340054 -2.918915 0.4589 0.4706 0.5686
v -1.428572 -0.340054 -2.992523 0.4550 0.4628 0.5647
v -2.000000 -0.340054 -4.753857 0.4550 0.4589 0.5647
v 2.000000 -0.340054 -4.753857 0.5451 0.5569 0.6315
v -2.000000 0.000000 0.000000 0.4863 0.4902 0.5843
v 2.000000 0.000000 0.000000 0.5569 0.5647 0.6393
v 1.200000 0.000000 0.884531 0.8000 0.8000 0.8274
v 0.400000 0.000000 0.884531 0.8274 0.8313 0.8549
v -0.400000 0.084785 0.884531 0.8117 0.8039 0.8392
v -1.200000 0.000000 0.884531 0.9333 0.8745 0.7490
v 2.000000 0.000000 -0.666667 0.6000 0.6079 0.6706
v -2.000000 0.000000 -0.666667 0.3882 0.4039 0.5216
v 1.530132 0.000000 -0.670459 1.0000 1.0000 1.0000
v 0.666667 0.021554 -0.666667 0.9960 0.9960 0.9960
v 0.014923 0.000000 -0.502845 0.9647 0.9176 0.8235
v -0.666667 0.000000 -0.666667 0.9568 0.8902 0.7568
v -1.467199 -0.008932 -0.434813 0.7490 0.6589 0.5647
v -0.997501 0.000000 -0.141093 0.9255 0.9058 0.9176
v -0.533333 0.000000 0.108932 0.9725 0.9451 0.9019
v -0.140163 -0.020833 0.440792 0.8745 0.7960 0.6510
v 0.200000 0.000000 0.108932 0.9490 0.8941 0.7882
v 0.643135 0.041667 0.275189 0.8862 0.6432 0.4980
v 1.112829 0.041667 0.281574 0.9490 0.8627 0.7098
vn -0.0363 0.9993 -0.0129
vn -0.0773 0.9758 -0.2047
vn 0.0515 0.9884 -0.1429
vn 0.0335 0.9870 -0.1573
vn 0.0866 0.9931 -0.0795
vn -0.0054 0.9712 -0.2381
vn -0.0232 0.9820 -0.1874
vn -0.0323 0.9867 -0.1590
vn 0.0760 0.9310 -0.3571
vn -0.1238 0.8801 -0.4583
vn 0.1683 0.9565 -0.2384
vn 0.0817 0.9659 -0.2456
vn -0.2386 0.9461 -0.2190
vn -0.0559 0.9784 -0.1991
vn -0.1265 0.9161 -0.3805
vn -0.0000 1.0000 -0.0000
vn 0.0799 0.7543 -0.6516
vn 0.1899 0.9810 0.0403
vn 0.0122 0.9999 0.0105
vn -0.0084 0.9999 0.0096
vn -0.0041 0.9994 -0.0335
vn 0.0248 0.9994 -0.0252
vn -0.0667 0.9691 -0.2376
vn 0.0232 0.9820 -0.1874
vn 0.0323 0.9867 -0.1590
vn -0.0000 0.9787 -0.2054
vn 0.0539 0.9883 -0.1429
vn -0.0424 0.9867 -0.1572
vn -0.0866 0.9931 -0.0795
vn -0.1264 0.9664 -0.2237
vn 0.2123 0.9576 -0.1949
vn -0.0086 0.9235 -0.3835
vn -0.0961 0.9293 -0.3565
vn 0.1222 0.8159 -0.5651
vn 0.0311 0.9698 -0.2417
vn 0.0884 0.9654 -0.2454
vn 0.1757 0.9715 -0.1589
vn -0.0000 0.9586 -0.2848
vn -0.0875 0.8257 -0.5573
vn -0.1757 0.9715 -0.1589
vn -0.0000 0.8994 -0.4371
vn 0.0168 0.9999 -0.0000
vn 0.0096 0.9999 -0.0087
vn -0.0136 0.9999 -0.0086
vn -0.0472 0.9988 0.0143
vn 0.1660 0.9768 -0.1353
vn 0.0003 0.9998 -0.0213
vn -0.1035 0.9943 0.0267
vn -0.0307 0.9995 0.0093
vn -0.0009 0.9977 0.0679
vn -0.0051 0.9998 0.0212
vn 0.1038 0.9795 -0.1724
vn -0.1054 0.9942 -0.0208
vn 0.0248 0.9992 -0.0329
vn -0.0169 0.9999 -0.0033
vn -0.0849 0.9961 -0.0234
vn -0.0000 0.9976 0.0689
vn 0.0619 0.9980 -0.0106
vn -0.0489 0.9987 0.0126
vn 0.0643 0.9908 -0.1194
vt 2.279926 2.588683
vt 1.872101 1.929558
vt 2.683233 2.025732
vt 1.140319 2.874369
vt 0.570516 3.041995
vt 0.570516 2.659252
vt 1.710123 2.659252
vt 2.279926 3.009562
vt 1.710123 3.214805
vt 2.849730 2.659252
vt 3.419534 3.041995
vt 2.849730 3.163248
vt 0.000000 2.659252
vt 0.000000 3.662841
vt 1.140319 3.201993
vt 3.989337 2.659252
vt 3.419534 2.543603
vt 2.849730 3.837911
vt 0.570516 4.313725
vt 0.000000 4.159773
vt 1.710123 3.837911
vt 1.140319 4.240327
vt 2.279926 4.027380
vt 3.989337 3.662841
vt 3.419534 4.159773
vt 3.989337 6.070048
vt 3.989338 0.000000
vt 2.393887 0.447695
vt 1.596162 0.447695
vt 3.591119 2.107638
vt 3.089064 1.166126
vt 3.261925 0.447695
vt 0.000000 1.931982
vt 0.531999 1.763288
vt 1.252129 1.924169
vt 3.989337 1.994482
vt 3.989337 4.036506
vt 0.000000 6.070048
vt 0.000000 1.329710
vt 0.000001 0.000000
vt 0.798437 0.447695
vt 3.989337 1.329710
vt 0.953485 1.439152
vt 1.447583 1.213276
vt 1.855260 0.890172
vt 2.225706 1.244526
vt 2.550393 1.125616
s 0
f 7/1/1 39/2/1 38/3/1
f 9/4/2 18/5/2 10/6/2
f 8/7/3 15/8/3 16/9/3
f 6/10/4 13/11/4 14/12/4
f 3/13/5 18/5/5 11/14/5
f 9/4/6 16/9/6 17/15/6
f 6/10/7 15/8/7 7/1/7
f 4/16/8 13/11/8 5/17/8
f 13/11/9 22/18/9 14/12/9
f 11/14/10 26/19/10 19/20/10
f 17/15/11 24/21/11 25/22/11
f 15/8/12 22/18/12 23/23/12
f 12/24/13 21/25/13 13/11/13
f 17/15/14 26/19/14 18/5/14
f 16/9/15 23/23/15 24/21/15
f 28/26/16 25/22/16 23/23/16
f 2/27/17 32/28/17 33/29/17
f 37/30/18 47/31/18 31/32/18
f 3/13/16 36/33/16 10/6/16
f 36/33/19 41/34/19 10/6/19
f 41/34/20 40/35/20 10/6/20
f 8/7/16 9/4/16 40/35/16
f 9/4/16 10/6/16 40/35/16
f 40/35/16 39/2/16 8/7/16
f 7/1/16 8/7/16 39/2/16
f 5/17/16 6/10/16 37/30/16
f 6/10/21 7/1/21 38/3/21
f 37/30/22 6/10/22 38/3/22
f 35/36/16 4/16/16 5/17/16
f 37/30/16 35/36/16 5/17/16
f 9/4/23 17/15/23 18/5/23
f 8/7/24 7/1/24 15/8/24
f 6/10/25 5/17/25 13/11/25
f 3/13/26 10/6/26 18/5/26
f 9/4/27 8/7/27 16/9/27
f 6/10/28 14/12/28 15/8/28
f 4/16/29 12/24/29 13/11/29
f 13/11/30 21/25/30 22/18/30
f 11/14/31 18/5/31 26/19/31
f 17/15/32 16/9/32 24/21/32
f 15/8/33 14/12/33 22/18/33
f 12/24/34 20/37/34 21/25/34
f 17/15/35 25/22/35 26/19/35
f 16/9/36 15/8/36 23/23/36
f 23/23/16 22/18/16 21/25/16
f 21/25/16 20/37/16 28/26/16
f 28/26/16 27/38/16 25/22/16
f 27/38/16 19/20/16 26/19/16
f 27/38/16 26/19/16 25/22/16
f 23/23/16 21/25/16 28/26/16
f 25/22/16 24/21/16 23/23/16
f 29/39/37 1/40/37 34/41/37
f 1/40/38 2/27/38 33/29/38
f 34/41/39 1/40/39 33/29/39
f 2/27/40 30/42/40 31/32/40
f 2/27/41 31/32/41 32/28/41
f 36/33/42 29/39/42 41/34/42
f 29/39/43 34/41/43 41/34/43
f 42/43/16 43/44/16 40/35/16
f 41/34/44 42/43/44 40/35/44
f 44/45/45 45/46/45 39/2/45
f 43/44/46 33/29/46 44/45/46
f 31/32/16 30/42/16 37/30/16
f 30/42/16 35/36/16 37/30/16
f 46/47/47 47/31/47 38/3/47
f 45/46/48 32/28/48 46/47/48
f 45/46/49 38/3/49 39/2/49
f 32/28/50 47/31/50 46/47/50
f 40/35/51 44/45/51 39/2/51
f 32/28/52 44/45/52 33/29/52
f 33/29/53 42/43/53 34/41/53
f 37/30/54 38/3/54 47/31/54
f 41/34/55 34/41/55 42/43/55
f 45/46/56 46/47/56 38/3/56
f 32/28/57 31/32/57 47/31/57
f 40/35/58 43/44/58 44/45/58
f 32/28/59 45/46/59 44/45/59
f 33/29/60 43/44/60 42/43/60
