# Blender 3.6.2
# www.blender.org
o eyes
v -0.972634 2.081194 -0.179022
v -0.770418 2.641518 -0.163647
v -0.671843 1.986516 -0.684643
v -0.469628 2.546841 -0.669268
v 0.972634 2.081194 -0.179022
v 0.770418 2.641518 -0.163647
v 0.671843 1.986516 -0.684643
v 0.469628 2.546841 -0.669268
vn -0.7938 0.3010 -0.5286
vn 0.7938 0.3010 -0.5286
vt 0.000000 0.000000
vt 1.000000 1.000000
vt 0.000000 1.000000
vt 1.000000 0.000000
s 0
f 3/1/1 2/2/1 4/3/1
f 6/2/2 7/1/2 8/3/2
f 3/1/1 1/4/1 2/2/1
f 6/2/2 5/4/2 7/1/2
