# Blender 3.6.4
# www.blender.org
o rocket
v -0.000000 0.248576 -0.232280
v 0.220911 0.248576 -0.071778
v 0.136530 0.248576 0.187918
v -0.136531 0.248576 0.187918
v -0.220911 0.248576 -0.071778
v -0.000000 0.464324 0.000000
v -0.000000 -0.015167 -0.293144
v 0.278796 -0.015167 -0.090586
v 0.172305 -0.015167 0.237158
v -0.172306 -0.015167 0.237158
v -0.278796 -0.015167 -0.090586
v -0.000000 -0.179381 -0.232280
v 0.220911 -0.179381 -0.071778
v 0.136530 -0.179381 0.187918
v -0.136531 -0.179381 0.187918
v -0.220911 -0.179381 -0.071778
v -0.000000 -0.289809 -0.125025
v 0.118906 -0.289809 -0.038635
v 0.073488 -0.289809 0.101148
v -0.073488 -0.289809 0.101148
v -0.118906 -0.289809 -0.038635
vn 0.4432 0.6568 -0.6101
vn 0.7172 0.6568 0.2330
vn -0.0000 0.6568 0.7541
vn 0.5778 0.1835 -0.7953
vn -0.7172 0.6568 0.2330
vn -0.4432 0.6568 -0.6101
vn 0.9110 -0.2872 0.2960
vn -0.5778 0.1835 -0.7953
vn -0.9349 0.1835 0.3038
vn -0.0000 0.1835 0.9830
vn 0.9349 0.1835 0.3038
vn -0.0000 -0.6178 0.7863
vn -0.5630 -0.2872 -0.7749
vn -0.0000 -0.2872 0.9579
vn 0.5630 -0.2872 -0.7749
vn -0.9110 -0.2872 0.2960
vn -0.0000 -1.0000 -0.0000
vn 0.4622 -0.6178 -0.6361
vn -0.7478 -0.6178 0.2430
vn 0.7478 -0.6178 0.2430
vn -0.4622 -0.6178 -0.6361
vt 0.058681 0.426745
vt -0.094675 0.353565
vt 0.058681 0.280384
vt 0.060158 0.426127
vt -0.093198 0.352947
vt 0.060158 0.279766
vt 0.058027 0.426745
vt -0.095329 0.353565
vt 0.058027 0.280384
vt 0.202490 0.445921
vt 0.059160 0.426963
vt -0.094196 0.353783
vt 0.059160 0.280602
vt 0.059628 0.426541
vt -0.093729 0.353361
vt 0.059628 0.280181
vt 0.203968 0.260591
vt 0.295858 0.426127
vt 0.203968 0.445303
vt 0.203437 0.445717
vt 0.202969 0.446139
vt 0.201837 0.445921
vt 0.293727 0.280384
vt 0.362476 0.452154
vt 0.293727 0.426745
vt 0.203437 0.261005
vt 0.295328 0.426541
vt 0.201837 0.261209
vt 0.294381 0.280384
vt 0.294381 0.426745
vt 0.202969 0.261427
vt 0.294860 0.426963
vt 0.770674 0.664761
vt 0.474322 0.568470
vt 0.587518 0.412669
vt 0.363130 0.452154
vt 0.363609 0.255193
vt 0.363609 0.452372
vt 0.295858 0.279766
vt 0.364607 0.451536
vt 0.295328 0.280181
vt 0.364077 0.451950
vt 0.202490 0.261209
vt 0.362476 0.254975
vt 0.294860 0.280602
vt 0.770674 0.472179
vt 0.587518 0.724272
vt 0.363130 0.254975
vt 0.364607 0.254357
vt 0.364077 0.254771
s 0
f 1/1/1 6/2/1 2/3/1
f 2/4/2 6/5/2 3/6/2
f 3/7/3 6/8/3 4/9/3
f 2/3/4 7/10/4 1/1/4
f 4/11/5 6/12/5 5/13/5
f 5/14/6 6/15/6 1/16/6
f 9/17/7 13/18/7 8/19/7
f 1/16/8 11/20/8 5/14/8
f 5/13/9 10/21/9 4/11/9
f 4/9/10 9/22/10 3/7/10
f 3/6/11 8/19/11 2/4/11
f 15/23/12 19/24/12 14/25/12
f 7/26/13 16/27/13 11/20/13
f 10/28/14 14/25/14 9/22/14
f 7/10/15 13/29/15 12/30/15
f 11/31/16 15/32/16 10/21/16
f 18/33/17 20/34/17 21/35/17
f 13/29/18 17/36/18 12/30/18
f 15/32/19 21/37/19 20/38/19
f 14/39/20 18/40/20 13/18/20
f 12/41/21 21/42/21 16/27/21
f 2/3/4 8/43/4 7/10/4
f 9/17/7 14/39/7 13/18/7
f 1/16/8 7/26/8 11/20/8
f 5/13/9 11/31/9 10/21/9
f 4/9/10 10/28/10 9/22/10
f 3/6/11 9/17/11 8/19/11
f 15/23/12 20/44/12 19/24/12
f 7/26/13 12/41/13 16/27/13
f 10/28/14 15/23/14 14/25/14
f 7/10/15 8/43/15 13/29/15
f 11/31/16 16/45/16 15/32/16
f 21/35/17 17/46/17 18/33/17
f 18/33/17 19/47/17 20/34/17
f 13/29/18 18/48/18 17/36/18
f 15/32/19 16/45/19 21/37/19
f 14/39/20 19/49/20 18/40/20
f 12/41/21 17/50/21 21/42/21
